<?xml version="1.0" encoding="utf-8"?>
<!-- Generator: Adobe Illustrator 24.1.2, SVG Export Plug-In . SVG Version: 6.00 Build 0)  -->
<svg version="1.1" id="Layer_1" xmlns="http://www.w3.org/2000/svg" xmlns:xlink="http://www.w3.org/1999/xlink" x="0px" y="0px"
	 viewBox="0 0 16 14" style="enable-background:new 0 0 16 14;" xml:space="preserve">
<style type="text/css">
	.st0{fill:#FFFFFF;}
</style>
<g>
	<path class="st0" d="M13.3,11.6C13.3,11.6,13.3,11.6,13.3,11.6C13.3,11.6,13.3,11.6,13.3,11.6C13.3,11.6,13.3,11.6,13.3,11.6
		C13.3,11.6,13.3,11.6,13.3,11.6c0-2.5,0-4.9,0-7.3c0,0,0,0,0,0c0,0,0,0,0,0c0,0,0,0,0,0c0,0,0,0,0,0c0,0,0,0,0,0c0,0,0,0,0,0
		c-2.4,0-4.8,0-7.2,0c0-0.2,0-0.4,0-0.6c0-0.3,0.2-0.5,0.4-0.6c0.1-0.1,0.3-0.1,0.4-0.1c0.3-0.1,0.6-0.1,0.9,0c0.2,0,0.3,0,0.5,0
		c0-0.9,0-1.7,0-2.6c-0.1,0-0.2,0-0.4,0c-0.6,0-1.1,0-1.7,0c-0.5,0.1-1,0.2-1.5,0.4C3.7,1,3.1,1.8,2.9,2.9C2.8,3.3,2.8,3.7,2.8,4
		c0,0.1,0,0.1,0,0.2c-0.5,0-0.9,0-1.3,0c0,0.8,0,1.6,0,2.4c0.4,0,0.9,0,1.3,0c0,1.7,0,3.4,0,5c-0.4,0-0.8,0-1.2,0c0,0.8,0,1.6,0,2.4
		c2,0,4,0,6,0c0-0.8,0-1.6,0-2.4c-0.5,0-0.9,0-1.4,0c0-0.1,0-4.9,0-5c1.3,0,2.6,0,3.9,0c0,0.2,0,4.9,0,5c-0.4,0-0.8,0-1.2,0
		c0,0.2,0,2.3,0,2.4c1.9,0,3.8,0,5.7,0c0-0.8,0-1.6,0-2.4C14.1,11.6,13.7,11.6,13.3,11.6z"/>
	<path class="st0" d="M11.7,3.2c0.9,0,1.6-0.7,1.6-1.6c0-0.9-0.7-1.6-1.6-1.6c-0.9,0-1.6,0.7-1.6,1.6C10.1,2.5,10.8,3.2,11.7,3.2z"
		/>
</g>
</svg>
