<?xml version="1.0" encoding="utf-8"?>
<!-- Generator: Adobe Illustrator 24.0.2, SVG Export Plug-In . SVG Version: 6.00 Build 0)  -->
<svg version="1.1" id="Layer_1" xmlns="http://www.w3.org/2000/svg" xmlns:xlink="http://www.w3.org/1999/xlink" x="0px" y="0px"
	 viewBox="0 0 94 94" style="enable-background:new 0 0 94 94;" xml:space="preserve">
<style type="text/css">
	.st0{fill:#48BA7F;}
	.st1{fill:#8162AA;}
	.st2{fill:#F05023;}
	.st3{fill:#F37264;}
	.st4{fill:#47B8E9;}
</style>
<path id="path0_fill" class="st0" d="M31.3,94C40,94,47,87,47,78.3V62.7H31.3c-8.6,0-15.7,7-15.7,15.7S22.7,94,31.3,94z"/>
<path id="path1_fill" class="st1" d="M15.7,47c0-8.6,7-15.7,15.7-15.7H47v31.3H31.3C22.7,62.7,15.7,55.6,15.7,47z"/>
<path id="path1_fill_1_" class="st2" d="M15.7,15.7C15.7,7,22.7,0,31.3,0H47v31.3H31.3C22.7,31.3,15.7,24.3,15.7,15.7z"/>
<path id="path2_fill" class="st3" d="M47,0h15.7c8.6,0,15.7,7,15.7,15.7s-7,15.7-15.7,15.7H47V0z"/>
<path id="path3_fill" class="st4" d="M78.3,47c0,8.6-7,15.7-15.7,15.7S47,55.6,47,47s7-15.7,15.7-15.7S78.3,38.4,78.3,47z"/>
</svg>
