<?xml version="1.0" encoding="utf-8"?>
<!-- Generator: Adobe Illustrator 24.0.2, SVG Export Plug-In . SVG Version: 6.00 Build 0)  -->
<svg version="1.1" id="Layer_1" xmlns="http://www.w3.org/2000/svg" xmlns:xlink="http://www.w3.org/1999/xlink" x="0px" y="0px"
	 viewBox="0 0 100 100" style="enable-background:new 0 0 100 100;" xml:space="preserve">
<style type="text/css">
	.st0{fill:#21759B;}
</style>
<path class="st0" d="M50,100C22.3,100-0.2,77.9,0,50C0.2,22.1,21.3,0,50,0c28.8,0,50,22.5,50,50S77.7,100,50,100z M64.8,92.3
	L50.6,54.2l-13.3,39C47.1,95.4,53.8,96,64.8,92.3L64.8,92.3z M30.2,90.2L9,32.1C6,38.3,5.4,43.5,5,50C5.2,67.1,14.8,82.7,30.2,90.2z
	 M94.8,50C95,39,90,30.2,89.6,29c0.4,8.5-0.8,12.9-2.3,17.7L72.7,88.5C91,77.5,94.6,61,95,50H94.8L94.8,50z M48.5,48.1l-7.1-19.4
	l-5.2-0.4c-2.1-1.5-0.8-3.8,0.6-3.8c9.4,0.6,14.6,0.6,24,0c2.3,0,2.9,3.3,0.2,3.8l-5,0.4l16.2,47.9L80,50.4
	c0.4-11.5-2.7-12.7-6.9-21c-3.3-6.5,0.2-12.7,6.7-12.9C74.6,11.5,64,5.2,50,5c-14-0.2-28.8,6.9-37.5,20.2l15.4-0.4
	c1.9,0.8,1,3.5,0,3.8L22.5,29l16.2,48.8L48.5,48.1L48.5,48.1z"/>
</svg>
