<?xml version="1.0" encoding="utf-8"?>
<!-- Generator: Adobe Illustrator 24.0.2, SVG Export Plug-In . SVG Version: 6.00 Build 0)  -->
<svg version="1.1" id="Layer_1" xmlns="http://www.w3.org/2000/svg" xmlns:xlink="http://www.w3.org/1999/xlink" x="0px" y="0px"
	 viewBox="0 0 97 97" style="enable-background:new 0 0 97 97;" xml:space="preserve">
<style type="text/css">
	.st0{fill:#FFFFFF;}
</style>
<g>
	<path class="st0" d="M56.7,48.5l15.6-26.9l7.5,26.9l-7.5,26.9L56.7,48.5L56.7,48.5z M49.1,52.9l15.6,26.9l-27.2-7l-19.6-20H49.1
		L49.1,52.9z M64.7,17.2L49.1,44.1H17.9l19.6-20L64.7,17.2L64.7,17.2z M87,39.3L77.5,3.9l-35.5,9.5l-5.3,9.2L26,22.6L0,48.5l26,25.9
		h0l10.7-0.1l5.3,9.2l35.5,9.5L87,57.7l-5.4-9.2L87,39.3L87,39.3z"/>
</g>
</svg>
