<?xml version="1.0" encoding="utf-8"?>
<!-- Generator: Adobe Illustrator 24.0.2, SVG Export Plug-In . SVG Version: 6.00 Build 0)  -->
<svg version="1.1" id="Layer_1" xmlns="http://www.w3.org/2000/svg" xmlns:xlink="http://www.w3.org/1999/xlink" x="0px" y="0px"
	 viewBox="0 0 74 74" style="enable-background:new 0 0 74 74;" xml:space="preserve">
<style type="text/css">
	.st0{fill:#578AC8;}
</style>
<g>
	<g id="icon">
		<path id="Shape" class="st0" d="M37,20.6c-9.1,0-16.5,7.4-16.5,16.5S27.9,53.5,37,53.5s16.5-7.4,16.5-16.5
			C53.4,27.9,46.1,20.6,37,20.6z"/>
		<circle id="Oval" class="st0" cx="60.6" cy="14.5" r="7.5"/>
		<path id="Shape_1_" class="st0" d="M69.8,22.1l-0.3-0.7L69.1,22c-1.2,1.4-2.8,2.5-4.5,3.1L64,25.3l0.2,0.5
			c1.5,3.6,2.2,7.4,2.2,11.3c0,16.3-13.2,29.5-29.5,29.5S7.5,53.4,7.5,37.1S20.7,7.6,37,7.6c4.4,0,8.6,1,12.6,2.9l0.4,0.2l0.2-0.5
			c0.7-1.7,1.9-3.2,3.4-4.4l0.6-0.5l-0.7-0.4c-5.2-2.6-10.7-4-16.5-4C17.1,0.9,0.9,17.1,0.9,37S17.1,73.1,37,73.1S73.1,56.9,73.1,37
			C73.1,31.8,72,26.8,69.8,22.1z"/>
	</g>
</g>
</svg>
