<?xml version="1.0" encoding="utf-8"?>
<!-- Generator: Adobe Illustrator 24.0.2, SVG Export Plug-In . SVG Version: 6.00 Build 0)  -->
<svg version="1.1" id="Layer_1" xmlns="http://www.w3.org/2000/svg" xmlns:xlink="http://www.w3.org/1999/xlink" x="0px" y="0px"
	 viewBox="0 0 174 180.2" style="enable-background:new 0 0 174 180.2;" xml:space="preserve">
<style type="text/css">
	.st0{fill:none;}
	.st1{fill:#EF382C;}
</style>
<rect y="44.1" class="st0" width="174" height="92"/>
<g>
	<path class="st1" d="M174.4,40.8c0.1,0.2,0.1,0.5,0.1,0.7v38.7c0,1-0.5,1.9-1.4,2.4l-32.5,18.7v37.1c0,1-0.5,1.9-1.4,2.4l-67.8,39
		c-0.2,0.1-0.3,0.1-0.5,0.2c-0.1,0-0.1,0.1-0.2,0.1c-0.5,0.1-1,0.1-1.4,0c-0.1,0-0.1-0.1-0.2-0.1c-0.2-0.1-0.3-0.1-0.5-0.2l-67.8-39
		c-0.9-0.5-1.4-1.4-1.4-2.4V22.3c0-0.3,0-0.5,0.1-0.7c0-0.1,0.1-0.2,0.1-0.2c0.1-0.1,0.1-0.3,0.2-0.4c0.1-0.1,0.1-0.2,0.2-0.3
		c0.1-0.1,0.2-0.2,0.3-0.3c0.1-0.1,0.2-0.1,0.3-0.2C0.7,20,0.8,20,0.9,19.9h0L34.8,0.4c0.9-0.5,1.9-0.5,2.8,0l33.9,19.5h0
		c0.1,0.1,0.2,0.2,0.3,0.2c0.1,0.1,0.2,0.1,0.3,0.2c0.1,0.1,0.2,0.2,0.3,0.3c0.1,0.1,0.1,0.2,0.2,0.3c0.1,0.1,0.1,0.3,0.2,0.4
		c0,0.1,0.1,0.2,0.1,0.2c0.1,0.2,0.1,0.5,0.1,0.7v72.5l28.2-16.3V41.5c0-0.2,0-0.5,0.1-0.7c0-0.1,0.1-0.2,0.1-0.2
		c0.1-0.1,0.1-0.3,0.2-0.4c0.1-0.1,0.1-0.2,0.2-0.3c0.1-0.1,0.2-0.2,0.3-0.3c0.1-0.1,0.2-0.1,0.3-0.2c0.1-0.1,0.2-0.2,0.3-0.2h0
		l33.9-19.5c0.9-0.5,1.9-0.5,2.8,0l33.9,19.5c0.1,0.1,0.2,0.2,0.3,0.2c0.1,0.1,0.2,0.1,0.3,0.2c0.1,0.1,0.2,0.2,0.3,0.3
		c0.1,0.1,0.1,0.2,0.2,0.3c0.1,0.1,0.1,0.3,0.2,0.4C174.4,40.6,174.4,40.7,174.4,40.8z M168.9,78.6V46.4L157,53.2l-16.4,9.4v32.2
		L168.9,78.6L168.9,78.6z M135,136.8v-32.2l-16.1,9.2l-46,26.3v32.5L135,136.8z M5.1,27.2v109.5l62.1,35.8V140l-32.5-18.4l0,0l0,0
		c-0.1-0.1-0.2-0.2-0.3-0.2c-0.1-0.1-0.2-0.1-0.3-0.2l0,0c-0.1-0.1-0.2-0.2-0.2-0.3c-0.1-0.1-0.2-0.2-0.2-0.3l0,0
		c-0.1-0.1-0.1-0.2-0.1-0.4c0-0.1-0.1-0.2-0.1-0.3v0c0-0.1,0-0.3-0.1-0.4c0-0.1,0-0.2,0-0.3v0V43.5L17,34L5.1,27.2L5.1,27.2z
		 M36.2,6.1L7.9,22.3l28.2,16.3l28.2-16.3L36.2,6.1L36.2,6.1z M50.9,107.5l16.4-9.4V27.2L55.4,34L39,43.5v70.9L50.9,107.5z
		 M137.8,25.3l-28.2,16.3l28.2,16.3l28.2-16.3L137.8,25.3z M135,62.6l-16.4-9.4l-11.9-6.8v32.2l16.4,9.4l11.9,6.8V62.6z M70.1,135.1
		l41.4-23.6l20.7-11.8l-28.2-16.2l-32.5,18.7l-29.6,17L70.1,135.1z"/>
</g>
</svg>
