<?xml version="1.0" encoding="utf-8"?>
<!-- Generator: Adobe Illustrator 24.0.2, SVG Export Plug-In . SVG Version: 6.00 Build 0)  -->
<svg version="1.1" id="Layer_1" xmlns="http://www.w3.org/2000/svg" xmlns:xlink="http://www.w3.org/1999/xlink" x="0px" y="0px"
	 viewBox="0 0 100 100" style="enable-background:new 0 0 100 100;" xml:space="preserve">
<style type="text/css">
	.st0{fill:#8EC74E;}
</style>
<g>
	<path class="st0" d="M45.9,1.1c2.5-1.4,5.7-1.4,8.2,0c12.5,7,24.9,14.1,37.4,21.1c2.3,1.3,3.9,3.9,3.9,6.6v42.4
		c0,2.8-1.7,5.5-4.2,6.8c-12.4,7-24.8,14-37.3,21c-2.5,1.4-5.8,1.3-8.3-0.2c-3.7-2.2-7.5-4.3-11.2-6.5c-0.8-0.5-1.6-0.8-2.2-1.6
		c0.5-0.6,1.3-0.7,2-1c1.6-0.5,3-1.3,4.4-2.1c0.4-0.2,0.8-0.2,1.1,0.1c3.2,1.8,6.3,3.7,9.5,5.5c0.7,0.4,1.4-0.1,2-0.5
		C63.6,85.9,75.8,79.1,88,72.2c0.5-0.2,0.7-0.7,0.7-1.2c0-14,0-28,0-41.9c0.1-0.6-0.3-1.1-0.8-1.3c-12.4-7-24.8-14-37.1-20.9
		c-0.4-0.3-1-0.3-1.5,0c-12.4,7-24.7,14-37.1,20.9c-0.5,0.2-0.8,0.7-0.8,1.3c0,14,0,28,0,41.9c0,0.5,0.2,1,0.7,1.2
		c3.3,1.9,6.6,3.7,9.9,5.6c1.9,1,4.1,1.6,6.2,0.8c1.8-0.6,3.1-2.5,3-4.4c0-13.9,0-27.8,0-41.7c0-0.6,0.5-1.1,1.1-1.1
		c1.6,0,3.2,0,4.8,0c0.7,0,1.1,0.6,1,1.3c0,14,0,28,0,42c0,3.7-1.5,7.8-5,9.6c-4.2,2.2-9.5,1.7-13.7-0.4c-3.6-1.8-7.1-4-10.7-5.9
		c-2.5-1.3-4.2-4-4.2-6.8V28.8c0-2.8,1.6-5.4,4-6.7C21.1,15.1,33.5,8.1,45.9,1.1z"/>
	<path class="st0" d="M56.7,30.4c5.4-0.3,11.2-0.2,16.1,2.5c3.8,2,5.9,6.3,5.9,10.5c-0.1,0.6-0.7,0.9-1.2,0.8c-1.6,0-3.1,0-4.7,0
		c-0.7,0-1.1-0.6-1.1-1.2c-0.5-2-1.5-4-3.4-5c-2.9-1.5-6.3-1.4-9.4-1.3c-2.3,0.1-4.8,0.3-6.7,1.7c-1.5,1-2,3.1-1.4,4.8
		c0.5,1.2,1.9,1.6,3,1.9c6.5,1.7,13.4,1.5,19.8,3.8c2.7,0.9,5.2,2.7,6.2,5.5c1.2,3.7,0.7,8.2-2,11.2c-2.1,2.5-5.3,3.8-8.4,4.5
		c-4.1,0.9-8.5,0.9-12.7,0.5c-4-0.5-8.1-1.5-11.1-4.2c-2.6-2.3-3.9-5.8-3.8-9.2c0-0.6,0.6-1,1.2-0.9c1.6,0,3.2,0,4.7,0
		c0.6,0,1.1,0.5,1.1,1.1c0.3,1.9,1,3.9,2.7,5.1c3.2,2.1,7.3,1.9,10.9,2c3.1-0.1,6.5-0.2,9-2.2c1.3-1.2,1.7-3.1,1.3-4.7
		c-0.4-1.4-1.8-2-3.1-2.5c-6.4-2-13.4-1.3-19.8-3.6c-2.6-0.9-5.1-2.6-6.1-5.3c-1.4-3.8-0.8-8.4,2.2-11.3
		C48.7,31.9,52.8,30.8,56.7,30.4L56.7,30.4z"/>
</g>
</svg>
