<?xml version="1.0" encoding="utf-8"?>
<!-- Generator: Adobe Illustrator 24.0.2, SVG Export Plug-In . SVG Version: 6.00 Build 0)  -->
<svg version="1.1" id="Layer_1" xmlns="http://www.w3.org/2000/svg" xmlns:xlink="http://www.w3.org/1999/xlink" x="0px" y="0px"
	 viewBox="0 0 167.7 167.7" style="enable-background:new 0 0 167.7 167.7;" xml:space="preserve">
<style type="text/css">
	.st0{fill-rule:evenodd;clip-rule:evenodd;fill:#FFFFFF;}
</style>
<path class="st0" d="M83.8-0.2c-46.4,0-84,37.6-84,84c0,46.4,37.6,84,84,84c46.4,0,84-37.6,84-84C167.8,37.4,130.2-0.2,83.8-0.2z
	 M111.8,73.9l-0.8,9.9H92.3c0,28.2,0,63,0,63H67c0,0,0-34.4,0-63H54.4V58.6H67V47.2c0-10.3,4.9-26.4,26.5-26.4H113v21.6
	c0,0-11.9,0-14.1,0c-2.3,0-5.6,1.2-5.6,6v10.1h20.1L111.8,73.9z"/>
</svg>
