<?xml version="1.0" encoding="utf-8"?>
<!-- Generator: Adobe Illustrator 24.0.2, SVG Export Plug-In . SVG Version: 6.00 Build 0)  -->
<svg version="1.1" id="Layer_1" xmlns="http://www.w3.org/2000/svg" xmlns:xlink="http://www.w3.org/1999/xlink" x="0px" y="0px"
	 viewBox="0 0 167.7 167.7" style="enable-background:new 0 0 167.7 167.7;" xml:space="preserve">
<style type="text/css">
	.st0{fill:#FFFFFF;}
</style>
<path class="st0" d="M83.8-0.2c-46.4,0-84,37.6-84,84s37.6,84,84,84c46.4,0,84-37.6,84-84S130.2-0.2,83.8-0.2z M53.6,139H30.9V65.4
	h22.8V139z M42.1,55.8c-7.4,0-13.5-6.1-13.5-13.6c0-7.5,6-13.6,13.5-13.6s13.5,6.1,13.5,13.6C55.6,49.7,49.6,55.8,42.1,55.8z
	 M139,139h-22.7v-38.6c0-10.6-4-16.5-12.4-16.5C94.8,83.8,90,90,90,100.3V139H68.2V65.4H90v9.9c0,0,6.6-12.2,22.2-12.2
	c15.6,0,26.8,9.5,26.8,29.2V139z"/>
</svg>
