<?xml version="1.0" encoding="utf-8"?>
<!-- Generator: Adobe Illustrator 24.0.2, SVG Export Plug-In . SVG Version: 6.00 Build 0)  -->
<svg version="1.1" id="Layer_1" xmlns="http://www.w3.org/2000/svg" xmlns:xlink="http://www.w3.org/1999/xlink" x="0px" y="0px"
	 viewBox="0 0 167.7 167.7" style="enable-background:new 0 0 167.7 167.7;" xml:space="preserve">
<style type="text/css">
	.st0{fill:#FFFFFF;}
</style>
<g>
	<path class="st0" d="M110.4,33.6H58.2c-13.3,0-24.1,10.8-24.1,24.1v52.2c0,13.3,10.8,24.1,24.1,24.1h52.2
		c13.3,0,24.1-10.8,24.1-24.1V57.7C134.5,44.4,123.7,33.6,110.4,33.6z M84.3,114.8c-17.1,0-31-13.9-31-31c0-17.1,13.9-31,31-31
		c17.1,0,31,13.9,31,31C115.3,100.9,101.4,114.8,84.3,114.8z M116.6,58.4c-4.1,0-7.5-3.3-7.5-7.5c0-4.1,3.3-7.5,7.5-7.5
		c4.2,0,7.5,3.3,7.5,7.5S120.7,58.4,116.6,58.4z"/>
	
		<ellipse transform="matrix(0.2298 -0.9732 0.9732 0.2298 -16.6264 146.5916)" class="st0" cx="84.3" cy="83.8" rx="20.6" ry="20.6"/>
	<path class="st0" d="M84.3-0.2c-46.4,0-84,37.6-84,84c0,46.4,37.6,84,84,84c46.4,0,84-37.6,84-84C168.3,37.4,130.7-0.2,84.3-0.2z
		 M110.4,144.4H58.2c-19,0-34.5-15.5-34.5-34.5V57.7c0-19,15.5-34.5,34.5-34.5h52.2c19,0,34.5,15.5,34.5,34.5v52.2
		C144.9,128.9,129.4,144.4,110.4,144.4z"/>
</g>
</svg>
