<?xml version="1.0" encoding="utf-8"?>
<!-- Generator: Adobe Illustrator 24.0.2, SVG Export Plug-In . SVG Version: 6.00 Build 0)  -->
<svg version="1.1" id="Layer_1" xmlns="http://www.w3.org/2000/svg" xmlns:xlink="http://www.w3.org/1999/xlink" x="0px" y="0px"
	 viewBox="0 0 167.7 167.7" style="enable-background:new 0 0 167.7 167.7;" xml:space="preserve">
<style type="text/css">
	.st0{fill:#FFFFFF;}
</style>
<path class="st0" d="M83.8-0.2c-46.4,0-84,37.6-84,84c0,46.4,37.6,84,84,84c46.4,0,84-37.6,84-84C167.9,37.5,130.3-0.2,83.8-0.2z
	 M112.1,29.7c7,0,12.4,5.4,12.4,12.4s-5.4,12.4-12.4,12.4c-7,0-12.4-5.4-12.4-12.4S105.1,29.7,112.1,29.7z M134.6,138
	c-14.7,0-29.4,0-44.1,0c0-0.8,0-17,0-18.6c3.1,0,6.2,0,9.3,0c0-0.8,0-37.2,0-38.7c-10.1,0-20.1,0-30.2,0c0,0.8,0,37.9,0,38.7
	c3.9,0,7,0,10.8,0c0,6.2,0,12.4,0,18.6c-15.5,0-31,0-46.4,0c0-6.2,0-12.4,0-18.6c3.1,0,6.2,0,9.3,0c0-12.4,0-25.5,0-38.7
	c-3.1,0-7,0-10.1,0c0-6.2,0-12.4,0-18.6c3.1,0,6.2,0,10.1,0c0-0.8,0-0.8,0-1.5c0-2.3,0-5.4,0.8-8.5c1.5-8.5,6.2-14.7,13.9-16.3
	c3.9-1.5,7.7-2.3,11.6-3.1c4.6,0,8.5,0,13.2,0c1.5,0,2.3,0,3.1,0c0,7,0,13.2,0,20.1c-1.5,0-2.3,0-3.9,0c-2.3-0.8-4.6-0.8-7,0
	c-0.8,0-2.3,0-3.1,0.8c-1.5,0.8-3.1,2.3-3.1,4.6c0,1.5,0,3.1,0,4.6c18.6,0,37.2,0,55.7,0c0,18.6,0,37.2,0,56.5c3.1,0,6.2,0,10.1,0
	C134.6,125.6,134.6,131.8,134.6,138z"/>
</svg>
