<?xml version="1.0" encoding="utf-8"?>
<!-- Generator: Adobe Illustrator 24.0.2, SVG Export Plug-In . SVG Version: 6.00 Build 0)  -->
<svg version="1.1" id="Layer_1" xmlns="http://www.w3.org/2000/svg" xmlns:xlink="http://www.w3.org/1999/xlink" x="0px" y="0px"
	 viewBox="0 0 952.2 223.8" style="enable-background:new 0 0 952.2 223.8;" xml:space="preserve">
<style type="text/css">
	.st0{fill:#FFFFFF;}
	.st1{opacity:0.15;fill:#FFFFFF;enable-background:new    ;}
</style>
<g>
	<g>
		<path class="st0" d="M190.8,32.9l-13.5,13.5l-23.9,23.9c-14.6-25.7-42.2-43.1-73.8-43.1c-2.7,0-5.4,0.1-8.1,0.4
			C47.7,29.9,26.7,42.1,12.8,60c0,0,0,0,0-0.1c5.3-10.1,11.9-19.1,19.9-27.1c10.1-10.1,22-18.2,35.5-24C81.7,2.9,96.2,0,111.6,0
			c0.7,0,1.3,0,2,0c14.3,0.2,28,3.1,41,8.5C168.1,14.2,180.2,22.3,190.8,32.9z"/>
		<path class="st0" d="M144.6,157.9c-14.5,20.3-38.2,33.6-65,33.6c-4.6,0-9.1-0.4-13.5-1.2C28.6,183.9,0,151.1,0,111.8
			s28.6-72.1,66.1-78.5c4.4-0.8,8.9-1.2,13.5-1.2c25.6,0,48.4,12.1,62.9,30.9c-4.6-2.1-9.4-3.8-14.4-5.1l0,0
			c-4.1-1.2-8.4-1.9-12.8-2.2c-1.3-0.1-2.5-0.1-3.8-0.1c-7.6,0-14.9,1.5-21.8,4.5s-12.9,7-18,12s-9.2,11-12.1,17.9
			c-3,6.9-4.5,14.2-4.5,22s1.5,15.2,4.5,22.1c3,6.9,7,12.8,12.1,17.9c5.1,5,11.1,9,18,12s14.1,4.5,21.8,4.5c7.6,0,14.9-1.5,21.8-4.3
			C137.4,162.6,141.1,160.5,144.6,157.9z"/>
		<path class="st0" d="M190.8,190.9c-10.6,10.6-22.7,18.8-36.3,24.4c-13,5.4-26.6,8.3-41,8.5c-0.7,0-1.3,0-2,0
			c-15.5,0-29.9-2.9-43.4-8.8c-13.5-5.9-25.3-13.9-35.5-24c-7.3-7.3-13.4-15.4-18.5-24.4c-0.6-1-1.2-2.1-1.7-3.1
			c13.9,18.1,35.1,30.5,59.1,32.8c2.7,0.3,5.4,0.4,8.1,0.4c31.6,0,59.2-17.4,73.8-43.1L190.8,190.9z"/>
	</g>
	<g>
		<path class="st0" d="M362.2,0.1v55.1h-50.9c-15.4-15.4-36.6-24.9-60-24.9c-2.1,0-4.1,0.1-6.1,0.2c-30,2.1-55.7,19.9-69,45.2
			c0.9-2.5,1.8-4.9,2.8-7.3c5.8-13.6,13.8-25.5,23.9-35.6s22-18.1,35.6-23.9c13-5.6,26.9-8.5,41.5-8.7c0.7,0,1.3,0,2,0L362.2,0.1
			L362.2,0.1z"/>
		<path class="st0" d="M393.9,84.7V112c0,15.4-2.9,29.9-8.8,43.5c-5.8,13.6-13.8,25.5-23.9,35.6s-22,18.1-35.6,23.9
			s-28.1,8.8-43.5,8.8c-4.3,0-8.5-0.2-12.6-0.7c-10.8-1.2-21.1-3.9-30.9-8.1c-13.6-5.8-25.5-13.8-35.6-23.9
			c-6.5-6.5-12.1-13.7-16.8-21.6c14.4,17.2,35.4,28.7,59.1,30.4c2,0.1,4.1,0.2,6.1,0.2c46.8,0,84.9-38.1,84.9-84.9
			c0-10.7-2-21-5.7-30.5L393.9,84.7L393.9,84.7z"/>
		<path class="st0" d="M322.5,151.3c-13.2,25.9-40.2,43.7-71.2,43.7c-3.5,0-6.9-0.2-10.3-0.7c-39.2-5.1-69.6-38.7-69.6-79.2
			S201.8,41,241,35.9c3.4-0.4,6.8-0.7,10.3-0.7c20.2,0,38.6,7.5,52.7,19.9h-21.9c-7.8,0-15.1,1.5-22,4.4c-6.9,3-12.9,7-18.1,12.2
			s-9.3,11.2-12.2,18.1c-3,6.9-4.4,14.2-4.4,22s1.5,15.1,4.4,22c3,6.9,7,12.9,12.2,18.1c5.2,5.2,11.2,9.3,18.1,12.2
			c6.9,3,14.2,4.5,22,4.5c10.6,0,20.2-2.6,28.8-7.9C315.3,158,319.1,154.9,322.5,151.3z"/>
		<path class="st1" d="M327.3,139.7c2.5-7.7,3.9-16,3.9-24.6c0-10.8-2.2-21.1-6.1-30.5H256c-7.4,6.8-12,16.6-12,27.5
			s4.6,20.7,12,27.5L327.3,139.7L327.3,139.7z"/>
		<path class="st0" d="M331.2,115.1c0-10.8-2.2-21.1-6.1-30.5H256c-7.4,6.8-12,16.6-12,27.5s4.6,20.7,12,27.5h71.3
			C329.9,132,331.2,123.7,331.2,115.1z"/>
	</g>
</g>
<g>
	<path class="st0" d="M454.7,101.1c-14.1,0-24.6-3.8-32-11.8c-7.4-7.7-11-19-11-33.3c0-7.2,1-13.6,3.3-19.2s5.4-10.2,9.2-14.1
		S432.7,16,438,14c5.4-2,11.3-3.1,17.7-3.1c3.6,0,6.9,0.3,10,0.8s5.6,1.3,7.9,1.8c2.3,0.8,4.1,1.5,5.6,2.3s2.6,1.3,3.3,1.8L477,33.3
		c-2.6-1.5-5.6-2.6-9.2-3.6s-7.4-1.5-12-1.5c-3.1,0-5.9,0.5-8.7,1.5c-2.8,1-5.4,2.6-7.7,4.9c-2.3,2.3-3.8,5.1-5.4,8.5
		c-1.3,3.6-2,7.7-2,12.8c0,4.1,0.5,7.7,1.3,11c0.8,3.3,2.3,6.4,4.4,9c2,2.6,4.6,4.4,7.7,5.9s6.9,2.3,11.5,2.3c2.8,0,5.4-0.3,7.7-0.5
		s4.4-0.8,5.9-1.3c1.8-0.5,3.3-1,4.6-1.5s2.6-1,3.6-1.5l5.4,15.6c-2.8,1.5-6.7,3.1-11.5,4.4C467,100.6,461.1,101.1,454.7,101.1z"/>
	<path class="st0" d="M534.1,50.4c-1.5-0.5-3.6-0.8-5.9-1.3c-2.3-0.5-4.6-0.8-7.2-0.8c-1.3,0-2.6,0-4.1,0.3s-2.8,0.5-3.6,0.8v50
		h-18.4v-62c3.3-1.3,7.2-2.3,11.8-3.3c4.6-1,9.5-1.5,15.1-1.5c1,0,2.3,0,3.6,0.3c1.5,0,2.8,0.3,4.4,0.5c1.5,0.3,2.8,0.5,4.4,0.8
		c1.3,0.3,2.6,0.8,3.6,1L534.1,50.4z"/>
	<path class="st0" d="M567.7,15.1c0,3.3-1,6.1-3.3,7.9c-2.3,2-4.9,2.8-7.7,2.8c-3.1,0-5.6-1-7.7-2.8c-2.3-2-3.3-4.6-3.3-7.9
		s1-6.1,3.3-7.9c2.3-2,4.9-2.8,7.7-2.8c3.1,0,5.6,1,7.7,2.8S567.7,11.7,567.7,15.1z M565.9,99.6h-18.4V34h18.4V99.6z"/>
	<path class="st0" d="M602,86.3c3.3,0,5.9-0.3,7.2-1c1.3-0.8,2-2,2-3.8c0-1.5-1-2.8-2.8-3.8s-4.6-2.3-8.5-3.8
		c-2.8-1-5.6-2.3-7.9-3.3c-2.3-1.3-4.4-2.6-6.1-4.1c-1.8-1.5-3.1-3.6-3.8-5.9c-1-2.3-1.3-4.9-1.3-8.2c0-6.1,2.3-11,6.9-14.6
		c4.6-3.6,10.8-5.4,18.7-5.4c4.1,0,7.7,0.3,11.5,1c3.6,0.8,6.7,1.5,8.7,2.3L623.3,50c-2-0.8-4.6-1.5-6.9-2c-2.6-0.5-5.4-0.8-8.5-0.8
		c-5.9,0-8.7,1.5-8.7,4.9c0,0.8,0,1.5,0.3,2s0.8,1,1.5,1.8c0.8,0.5,1.8,1,3.1,1.8c1.3,0.5,2.8,1.3,4.9,2c4.1,1.5,7.4,3.1,10,4.4
		c2.6,1.5,4.9,3.1,6.4,4.9s2.6,3.6,3.3,5.6c0.5,2,1,4.4,1,7.2c0,6.4-2.3,11.3-7.2,14.6c-4.9,3.3-11.8,4.9-20.5,4.9
		c-5.9,0-10.8-0.5-14.6-1.5s-6.7-1.8-7.9-2.6l3.1-15.1c3.1,1.3,6.4,2.3,9.7,2.8C595.6,85.8,599,86.3,602,86.3z"/>
	<path class="st0" d="M643,17.6l18.4-3.1v19.2h22.3v15.4h-22.3v23.1c0,3.8,0.8,6.9,2,9.2c1.3,2.3,4.1,3.6,8.2,3.6
		c2,0,4.1-0.3,6.1-0.5c2-0.3,4.1-0.8,5.9-1.5l2.6,14.3c-2.3,1-4.6,1.8-7.4,2.3c-2.8,0.8-6.1,1-10,1c-5.1,0-9.2-0.8-12.6-2
		c-3.3-1.3-5.9-3.3-7.9-5.6c-2-2.6-3.3-5.4-4.1-9s-1.3-7.4-1.3-11.5L643,17.6L643,17.6z"/>
	<path class="st0" d="M719.1,15.1c0,3.3-1,6.1-3.3,7.9c-2.3,2-4.9,2.8-7.7,2.8c-3.1,0-5.6-1-7.7-2.8c-2.3-2-3.3-4.6-3.3-7.9
		s1-6.1,3.3-7.9c2.3-2,4.9-2.8,7.7-2.8c3.1,0,5.6,1,7.7,2.8C718.1,8.9,719.1,11.7,719.1,15.1z M717.6,99.6h-18.4V34h18.4V99.6z"/>
	<path class="st0" d="M758.6,32.2c5.4,0,10,0.5,13.6,1.8s6.7,3.1,8.7,5.4c2.3,2.3,3.8,5.1,4.6,8.5c1,3.3,1.3,6.9,1.3,11v38.7
		c-2.6,0.5-6.4,1.3-11,2s-10.5,1.3-17.2,1.3c-4.4,0-8.2-0.3-11.5-1c-3.3-0.8-6.4-2-9-3.6c-2.6-1.8-4.4-3.8-5.6-6.7
		c-1.3-2.8-2-6.1-2-10c0-3.8,0.8-7.2,2.3-9.7c1.5-2.6,3.6-4.9,6.1-6.4c2.6-1.5,5.6-2.8,9-3.3c3.3-0.8,6.7-1,10.2-1
		c2.3,0,4.6,0,6.4,0.3s3.3,0.5,4.6,0.8v-1.8c0-3.1-1-5.6-2.8-7.7c-1.8-1.8-5.1-2.8-10-2.8c-3.1,0-6.1,0.3-9.2,0.8
		c-3.1,0.5-5.6,1-7.9,2l-2.3-14.9c1-0.3,2.3-0.8,4.1-1c1.5-0.3,3.3-0.8,5.4-1c1.8-0.3,3.8-0.5,6.1-0.8
		C754.2,32.5,756.3,32.2,758.6,32.2z M759.8,86.5c1.8,0,3.6,0,5.1,0s3.1-0.3,4.1-0.3v-14c-0.8-0.3-1.8-0.3-3.3-0.5s-2.8-0.3-4.1-0.3
		c-1.8,0-3.3,0-4.9,0.3c-1.5,0.3-2.8,0.5-4.1,1.3c-1.3,0.5-2,1.3-2.8,2.3s-1,2.3-1,3.8c0,2.8,1,4.9,2.8,6.1
		C754,86,756.5,86.5,759.8,86.5z"/>
	<path class="st0" d="M803.7,36.3c3.1-1,7.2-1.8,12.3-2.6c4.9-0.8,10.2-1.3,15.6-1.3c5.6,0,10.2,0.8,13.8,2.3s6.7,3.6,8.7,6.1
		c2,2.6,3.6,5.9,4.6,9.5S860,58,860,62.6v36.9h-18.4V64.8c0-5.9-0.8-10.2-2.3-12.8s-4.6-3.8-9-3.8c-1.3,0-2.8,0-4.4,0.3
		c-1.5,0-2.8,0.3-4.1,0.5v50.5h-18.4v-63h0.3V36.3z"/>
	<path class="st0" d="M936.1,99.6c-5.6-10-11.5-19.7-17.9-29.2c-6.4-9.7-13.3-18.7-20.8-27.2v56.6h-19.2V13.5h15.9
		c2.8,2.8,5.9,6.1,9,10c3.3,4.1,6.7,8.2,10.2,12.8c3.3,4.6,6.9,9.2,10.2,14.1s6.7,9.5,9.5,14.1v-51h19.2v86.3h-16.1L936.1,99.6
		L936.1,99.6z"/>
	<path class="st0" d="M458.7,145.6c-9.1,0-15.9,2.6-20.1,7.6c-4.2,5.2-6.3,12-6.3,20.9c0,4.4,0.5,8.4,1.6,11.8
		c1,3.4,2.6,6.5,4.4,9.1c2.1,2.6,4.4,4.4,7.6,6c3.1,1.3,6.5,2.1,10.7,2.1c2.1,0,4.2,0,5.7,0s2.9-0.3,4.2-0.5V172h19.8v43.6
		c-2.4,1-6.3,1.8-11.5,2.9c-5.2,1-11.8,1.6-19.3,1.6c-6.5,0-12.5-1-18-3.1s-9.9-5-13.8-8.9s-6.8-8.6-8.9-14.4
		c-2.1-5.7-3.1-12-3.1-19.3s1-13.8,3.4-19.6c2.4-5.7,5.5-10.4,9.4-14.4c3.9-3.9,8.6-6.8,14.1-8.9s11.2-3.1,17.2-3.1
		c4.2,0,7.8,0.3,11.2,0.8c3.4,0.5,6.3,1.3,8.6,1.8c2.4,0.8,4.4,1.6,6,2.4c1.6,0.8,2.6,1.3,3.4,1.8l-5.7,15.9
		c-2.6-1.6-5.7-2.6-9.4-3.7C466.5,146.1,462.9,145.6,458.7,145.6z"/>
	<path class="st0" d="M566,184.7c0,5.2-0.8,9.9-2.4,14.4c-1.6,4.4-3.7,8.1-6.5,11.2c-2.9,3.1-6.3,5.5-10.4,7.1
		c-3.9,1.6-8.6,2.6-13.6,2.6s-9.4-0.8-13.3-2.6c-3.9-1.6-7.6-4.2-10.4-7.1c-2.9-3.1-5.2-6.8-6.8-11.2c-1.6-4.4-2.4-9.1-2.4-14.4
		s0.8-9.9,2.4-14.4c1.6-4.4,3.9-8.1,6.8-11c2.9-3.1,6.3-5.5,10.4-7.1c3.9-1.6,8.4-2.6,13.1-2.6c4.7,0,9.1,0.8,13.3,2.6
		c3.9,1.6,7.6,4.2,10.4,7.1c2.9,3.1,5.2,6.8,6.8,11C565.2,174.8,566,179.5,566,184.7z M546.7,184.7c0-5.7-1-10.4-3.4-13.8
		c-2.4-3.4-5.7-5-9.9-5c-4.4,0-7.6,1.6-9.9,5c-2.4,3.4-3.7,7.8-3.7,13.8s1.3,10.4,3.7,13.8c2.4,3.4,5.7,5.2,9.9,5.2
		c4.4,0,7.6-1.8,9.9-5.2C545.6,195.2,546.7,190.7,546.7,184.7z"/>
	<path class="st0" d="M580.6,153.9c3.1-1,7.3-1.8,12.5-2.6c5-0.8,10.4-1.3,15.9-1.3c5.7,0,10.4,0.8,14.1,2.4
		c3.7,1.6,6.8,3.7,8.9,6.3c2.1,2.6,3.7,6,4.7,9.7s1.3,7.8,1.3,12.5v37.6h-18.8V183c0-6-0.8-10.4-2.4-13.1c-1.6-2.6-4.7-3.9-9.1-3.9
		c-1.3,0-2.9,0-4.4,0.3c-1.6,0-2.9,0.3-4.2,0.5v51.4h-18.8V154L580.6,153.9L580.6,153.9z"/>
	<path class="st0" d="M705.5,164.4c-1.6,1.6-3.7,3.9-6.3,6.8s-5.5,6-8.4,9.4s-6,7.1-8.9,11c-3.1,3.9-5.7,7.6-8.1,11h32.4v15.7h-55.1
		v-11.2c1.8-3.1,3.9-6.3,6.5-9.9c2.6-3.4,5.2-7.1,7.8-10.7c2.9-3.7,5.5-7.1,8.1-10.4c2.6-3.4,5.2-6.3,7.6-9.1h-28.5v-15.7h53v13.3
		h-0.1V164.4z"/>
	<path class="st0" d="M741,149.7c5.5,0,10.2,0.5,13.8,1.8s6.8,3.1,8.9,5.5c2.4,2.4,3.9,5.2,4.7,8.6c1,3.4,1.3,7.1,1.3,11.2v39.4
		c-2.6,0.5-6.5,1.3-11.2,2.1s-10.7,1.3-17.5,1.3c-4.4,0-8.4-0.3-11.8-1c-3.4-0.8-6.5-2.1-9.1-3.7c-2.6-1.8-4.4-3.9-5.7-6.8
		c-1.3-2.9-2.1-6.3-2.1-10.2s0.8-7.3,2.4-9.9c1.6-2.6,3.7-5,6.3-6.5c2.6-1.6,5.7-2.9,9.1-3.4c3.4-0.8,6.8-1,10.4-1
		c2.4,0,4.7,0,6.5,0.3s3.4,0.5,4.7,0.8v-1.8c0-3.1-1-5.7-2.9-7.8c-1.8-1.8-5.2-2.9-10.2-2.9c-3.1,0-6.3,0.3-9.4,0.8
		c-3.1,0.5-5.7,1-8.1,2.1l-2.4-15.1c1-0.3,2.4-0.8,4.2-1c1.6-0.3,3.4-0.8,5.5-1c1.8-0.3,3.9-0.5,6.3-0.8
		C736.5,150,738.6,149.7,741,149.7z M742.3,205.1c1.8,0,3.7,0,5.2,0s3.1-0.3,4.2-0.3v-14.4c-0.8-0.3-1.8-0.3-3.4-0.5
		c-1.6-0.3-2.9-0.3-4.2-0.3c-1.8,0-3.4,0-5,0.3s-2.9,0.5-4.2,1.3c-1.3,0.5-2.1,1.3-2.9,2.4c-0.8,1-1,2.4-1,3.9c0,2.9,1,5,2.9,6.3
		C736.3,204.6,738.9,205.1,742.3,205.1z"/>
	<path class="st0" d="M813.6,219.7c-5.5,0-9.9-0.8-13.3-1.8c-3.4-1-6-2.6-8.1-4.7c-2.1-2.1-3.4-4.4-4.2-7.3c-0.8-2.9-1-6-1-9.7
		v-73.4l18.8-3.1v72.6c0,1.6,0,3.1,0.3,4.4s0.8,2.6,1.6,3.4c0.8,1,1.8,1.6,3.1,2.4c1.3,0.5,3.1,1,5.5,1L813.6,219.7z"/>
	<path class="st0" d="M824,185.5c0-6,0.8-11.2,2.6-15.7c1.8-4.4,4.2-8.1,7.1-11.2c2.9-2.9,6.3-5.2,10.2-6.8s7.8-2.4,11.8-2.4
		c9.4,0,17,2.9,22.5,8.6c5.5,5.7,8.4,14.4,8.4,25.6c0,1,0,2.4,0,3.7s-0.3,2.4-0.3,3.4h-42.8c0.5,3.9,2.4,7.1,5.5,9.1
		c3.1,2.4,7.6,3.4,13.1,3.4c3.4,0,6.8-0.3,10.2-1c3.4-0.5,6-1.3,8.1-2.4l2.6,15.4c-1,0.5-2.4,1-4.2,1.6c-1.6,0.5-3.7,1-5.7,1.3
		c-2.1,0.3-4.2,0.8-6.8,1c-2.4,0.3-4.7,0.3-7.1,0.3c-6,0-11.2-0.8-15.7-2.6c-4.4-1.8-8.1-4.2-11-7.3s-5-6.8-6.5-11
		C824.5,194.9,824,190.5,824,185.5z M868.4,178.2c0-1.6-0.3-3.1-0.8-4.7c-0.5-1.6-1.3-2.9-2.1-4.2c-1-1.3-2.1-2.1-3.7-2.9
		c-1.6-0.8-3.4-1-5.5-1s-3.9,0.3-5.5,1c-1.6,0.8-2.9,1.6-3.9,2.9c-1,1.3-1.8,2.6-2.4,4.2s-1,3.1-1.3,4.7H868.4z"/>
	<path class="st0" d="M951.5,164.4c-1.6,1.6-3.7,3.9-6.3,6.8s-5.5,6-8.4,9.4s-6,7.1-8.9,11c-3.1,3.9-5.7,7.6-8.1,11h32.4v15.7h-55.4
		v-11.2c1.8-3.1,3.9-6.3,6.5-9.9c2.6-3.4,5.2-7.1,7.8-10.7c2.9-3.7,5.5-7.1,8.1-10.4c2.6-3.4,5.2-6.3,7.6-9.1h-28.5v-15.7h53v13.1
		H951.5z"/>
</g>
</svg>
