<?xml version="1.0" encoding="utf-8"?>
<!-- Generator: Adobe Illustrator 24.0.2, SVG Export Plug-In . SVG Version: 6.00 Build 0)  -->
<svg version="1.1" id="Layer_1" xmlns="http://www.w3.org/2000/svg" xmlns:xlink="http://www.w3.org/1999/xlink" x="0px" y="0px"
	 viewBox="0 0 393.9 255.9" style="enable-background:new 0 0 393.9 255.9;" xml:space="preserve">
<style type="text/css">
	.st0{fill:#FFFFFF;}
	.st1{opacity:0.15;fill:#FFFFFF;enable-background:new    ;}
</style>
<g>
	<g>
		<path class="st0" d="M191.6,59.5l-11.7,11.7l-20.7,20.7c-12.7-22.3-36.6-37.4-64-37.4c-2.3,0-4.7,0.1-7,0.3
			c-20.6,2-38.8,12.6-50.9,28.1c0,0,0,0,0-0.1c4.6-8.8,10.3-16.6,17.3-23.5c8.8-8.8,19.1-15.8,30.8-20.8c11.7-5.1,24.3-7.6,37.6-7.6
			c0.6,0,1.1,0,1.7,0c12.4,0.2,24.3,2.7,35.6,7.4C171.9,43.2,182.4,50.3,191.6,59.5z"/>
		<path class="st0" d="M151.6,167.8C139,185.4,118.4,197,95.2,197c-4,0-7.9-0.3-11.7-1c-32.5-5.5-57.3-34-57.3-68.1
			S51,65.4,83.5,59.8c3.8-0.7,7.7-1,11.7-1c22.2,0,42,10.5,54.5,26.8c-4-1.8-8.2-3.3-12.5-4.4l0,0c-3.6-1-7.3-1.6-11.1-1.9
			c-1.1-0.1-2.2-0.1-3.3-0.1c-6.6,0-12.9,1.3-18.9,3.9c-6,2.6-11.2,6.1-15.6,10.4c-4.4,4.3-8,9.5-10.5,15.5
			c-2.6,6-3.9,12.3-3.9,19.1s1.3,13.2,3.9,19.2s6.1,11.1,10.5,15.5c4.4,4.3,9.6,7.8,15.6,10.4s12.2,3.9,18.9,3.9
			c6.6,0,12.9-1.3,18.9-3.7C145.3,171.9,148.5,170.1,151.6,167.8z"/>
		<path class="st0" d="M191.6,196.5c-9.2,9.2-19.7,16.3-31.5,21.2c-11.3,4.7-23.1,7.2-35.6,7.4c-0.6,0-1.1,0-1.7,0
			c-13.4,0-25.9-2.5-37.6-7.6s-21.9-12.1-30.8-20.8c-6.3-6.3-11.6-13.4-16-21.2c-0.5-0.9-1-1.8-1.5-2.7
			c12.1,15.7,30.4,26.4,51.2,28.4c2.3,0.3,4.7,0.3,7,0.3c27.4,0,51.3-15.1,64-37.4L191.6,196.5z"/>
	</g>
	<g>
		<path class="st0" d="M340.2,31v47.8h-44.1c-13.4-13.4-31.7-21.6-52-21.6c-1.8,0-3.6,0.1-5.3,0.2c-26,1.8-48.3,17.3-59.8,39.2
			c0.8-2.2,1.6-4.2,2.4-6.3c5-11.8,12-22.1,20.7-30.9c8.8-8.8,19.1-15.7,30.9-20.7c11.3-4.9,23.3-7.4,36-7.5c0.6,0,1.1,0,1.7,0
			L340.2,31L340.2,31z"/>
		<path class="st0" d="M367.7,104.4V128c0,13.4-2.5,25.9-7.6,37.7c-5,11.8-12,22.1-20.7,30.9s-19.1,15.7-30.9,20.7
			s-24.4,7.6-37.7,7.6c-3.7,0-7.4-0.2-10.9-0.6c-9.4-1-18.3-3.4-26.8-7c-11.8-5-22.1-12-30.9-20.7c-5.6-5.6-10.5-11.9-14.6-18.7
			c12.5,14.9,30.7,24.9,51.2,26.4c1.7,0.1,3.6,0.2,5.3,0.2c40.6,0,73.6-33,73.6-73.6c0-9.3-1.7-18.2-4.9-26.4L367.7,104.4
			L367.7,104.4z"/>
		<path class="st0" d="M305.8,162.1C294.4,184.6,271,200,244.1,200c-3,0-6-0.2-8.9-0.6c-34-4.4-60.3-33.6-60.3-68.7
			s26.4-64.3,60.3-68.7c2.9-0.3,5.9-0.6,8.9-0.6c17.5,0,33.5,6.5,45.7,17.3h-19c-6.8,0-13.1,1.3-19.1,3.8c-6,2.6-11.2,6.1-15.7,10.6
			s-8.1,9.7-10.6,15.7c-2.6,6-3.8,12.3-3.8,19.1s1.3,13.1,3.8,19.1c2.6,6,6.1,11.2,10.6,15.7s9.7,8.1,15.7,10.6
			c6,2.6,12.3,3.9,19.1,3.9c9.2,0,17.5-2.3,25-6.8C299.6,167.9,302.9,165.2,305.8,162.1z"/>
		<path class="st1" d="M310,152.1c2.2-6.7,3.4-13.9,3.4-21.3c0-9.4-1.9-18.3-5.3-26.4h-59.9c-6.4,5.9-10.4,14.4-10.4,23.8
			s4,17.9,10.4,23.8L310,152.1L310,152.1z"/>
		<path class="st0" d="M313.4,130.7c0-9.4-1.9-18.3-5.3-26.4h-59.9c-6.4,5.9-10.4,14.4-10.4,23.8s4,17.9,10.4,23.8H310
			C312.2,145.4,313.4,138.2,313.4,130.7z"/>
	</g>
</g>
</svg>
