<?xml version="1.0" encoding="utf-8"?>
<!-- Generator: Adobe Illustrator 24.1.2, SVG Export Plug-In . SVG Version: 6.00 Build 0)  -->
<svg version="1.1" xmlns="http://www.w3.org/2000/svg" xmlns:xlink="http://www.w3.org/1999/xlink" x="0px" y="0px"
	 viewBox="0 0 520 512" style="enable-background:new 0 0 520 512;" xml:space="preserve">
<style type="text/css">
	.st0{fill:#FFFFFF;}
</style>
<g id="github_x5F_black">
	<circle class="st0" cx="260" cy="256" r="256"/>
	<g>
		<path d="M497.59,255.63c0-131.22-106.37-237.59-237.59-237.59S22.41,124.41,22.41,255.63c0,104.15,67.02,192.64,160.28,224.72
			c5.69-4.1,12.23-9.16,12.23-17.69c0-13.07-0.28-46.68-0.28-46.68s-10.31,1.76-25.03,1.76c-37.09,0-48.81-23.53-54.39-36.71
			c-7.26-17.15-16.68-25.21-26.69-31.65c-6.15-3.96-7.56-8.62-0.45-9.95c32.82-6.15,41.22,37.02,63.14,43.91
			c15.65,4.91,35.77,2.79,45.78-3.65c1.32-13.18,10.88-24.59,18.84-30.6c-55.76-5.33-88.82-24.59-105.96-55.55l-1.84-3.47
			l-4.31-9.84l-1.27-3.52C97.08,261,94.71,243,94.71,222.9c0-35.69,11.18-49.15,26.2-68.18c-11.48-40.69,4.12-68.5,4.12-68.5
			s24.14-4.98,69.76,27.52c24.72-10.54,90.66-11.42,121.86-2.34c19.13-12.59,54.16-30.44,68.29-25.44c3.83,6.12,12.07,23.98,5,63.2
			c4.79,8.61,29.73,26.93,29.82,78.74c-0.4,19.11-2.4,35.24-6.11,48.88l-2.06,6.98c0,0-1.18,3.29-2.46,6.43l-1.51,3.47
			c-16.54,36.13-50.47,49.62-105.3,55.23c17.77,11.12,22.86,25.08,22.86,62.84s-0.51,42.83-0.39,51.52
			c0.1,7.68,6.24,13.2,11.76,17.38C430.21,448.76,497.59,360.07,497.59,255.63z"/>
	</g>
</g>
<g id="github_x5F_white">
</g>
<g id="github_x5F_blue_1_">
</g>
</svg>
