<?xml version="1.0" encoding="utf-8"?>
<!-- Generator: Adobe Illustrator 24.1.2, SVG Export Plug-In . SVG Version: 6.00 Build 0)  -->
<svg version="1.1" xmlns="http://www.w3.org/2000/svg" xmlns:xlink="http://www.w3.org/1999/xlink" x="0px" y="0px"
	 viewBox="0 0 170.05 50.05" style="enable-background:new 0 0 170.05 50.05;" xml:space="preserve">
<style type="text/css">
	.st0{fill:#A7A9AC;}
	.st1{fill:#FFFFFF;}
	.st2{fill:#5BC9F4;}
	.st3{fill:url(#SVGID_1_);}
	.st4{fill:url(#SVGID_2_);}
	.st5{fill:url(#SVGID_3_);}
</style>
<g id="Google_Play">
	<g>
		<g>
			<path d="M161.95,49.4H8.1c-4.08,0-7.38-3.31-7.38-7.38V8.04c0-4.08,3.31-7.38,7.38-7.38h153.85c4.08,0,7.38,3.31,7.38,7.38v33.97
				C169.33,46.09,166.02,49.4,161.95,49.4z"/>
			<path class="st0" d="M163.57,50.03H6.48c-3.52,0-6.39-2.87-6.39-6.39V6.42c0-3.53,2.87-6.39,6.39-6.39h157.09
				c3.52,0,6.39,2.87,6.39,6.39v37.21C169.96,47.16,167.09,50.03,163.57,50.03z M6.48,1.29c-2.83,0-5.13,2.3-5.13,5.13v37.21
				c0,2.83,2.3,5.13,5.13,5.13h157.09c2.83,0,5.13-2.3,5.13-5.13V6.42c0-2.83-2.3-5.13-5.13-5.13H6.48z"/>
		</g>
		<g>
			<path class="st1" d="M85.78,27.37c-2.95,0-5.36,2.25-5.36,5.34c0,3.07,2.41,5.34,5.36,5.34c2.95,0,5.36-2.27,5.36-5.34
				C91.14,29.61,88.73,27.37,85.78,27.37z M85.78,35.95c-1.62,0-3.01-1.33-3.01-3.24c0-1.92,1.4-3.24,3.01-3.24
				c1.62,0,3.01,1.31,3.01,3.24C88.79,34.61,87.4,35.95,85.78,35.95z M74.09,27.37c-2.95,0-5.36,2.25-5.36,5.34
				c0,3.07,2.41,5.34,5.36,5.34c2.95,0,5.36-2.27,5.36-5.34C79.45,29.61,77.04,27.37,74.09,27.37z M74.09,35.95
				c-1.62,0-3.01-1.33-3.01-3.24c0-1.92,1.4-3.24,3.01-3.24c1.62,0,3.01,1.31,3.01,3.24C77.1,34.61,75.7,35.95,74.09,35.95z
				 M60.18,29.01v2.27h5.42c-0.16,1.27-0.59,2.2-1.23,2.85c-0.79,0.79-2.02,1.66-4.19,1.66c-3.34,0-5.95-2.69-5.95-6.03
				s2.61-6.03,5.95-6.03c1.8,0,3.12,0.71,4.09,1.62l1.6-1.6c-1.36-1.29-3.16-2.29-5.68-2.29c-4.57,0-8.41,3.72-8.41,8.29
				c0,4.57,3.84,8.29,8.41,8.29c2.47,0,4.33-0.81,5.78-2.33c1.5-1.5,1.96-3.6,1.96-5.3c0-0.53-0.04-1.01-0.12-1.42H60.18z
				 M117.06,30.77c-0.44-1.19-1.8-3.4-4.57-3.4c-2.75,0-5.04,2.16-5.04,5.34c0,2.99,2.27,5.34,5.3,5.34c2.45,0,3.86-1.5,4.45-2.37
				l-1.82-1.21c-0.61,0.89-1.44,1.48-2.63,1.48c-1.19,0-2.04-0.55-2.59-1.62l7.14-2.95L117.06,30.77z M109.78,32.55
				c-0.06-2.06,1.6-3.11,2.79-3.11c0.93,0,1.72,0.47,1.98,1.13L109.78,32.55z M103.97,37.73h2.35v-15.7h-2.35V37.73z M100.13,28.56
				h-0.08c-0.53-0.63-1.54-1.19-2.81-1.19c-2.67,0-5.12,2.35-5.12,5.36c0,2.99,2.45,5.32,5.12,5.32c1.27,0,2.29-0.57,2.81-1.21h0.08
				v0.77c0,2.04-1.09,3.14-2.85,3.14c-1.44,0-2.33-1.03-2.69-1.9l-2.04,0.85c0.59,1.42,2.14,3.16,4.73,3.16
				c2.75,0,5.08-1.62,5.08-5.56v-9.59h-2.23V28.56z M97.44,35.95c-1.62,0-2.97-1.36-2.97-3.22c0-1.88,1.36-3.26,2.97-3.26
				c1.6,0,2.85,1.38,2.85,3.26C100.29,34.59,99.04,35.95,97.44,35.95z M128.05,22.03h-5.61v15.7h2.34v-5.95h3.27
				c2.6,0,5.15-1.88,5.15-4.87S130.65,22.03,128.05,22.03z M128.11,29.59h-3.33v-5.38h3.33c1.75,0,2.75,1.45,2.75,2.69
				C130.86,28.12,129.86,29.59,128.11,29.59z M142.59,27.34c-1.7,0-3.45,0.75-4.18,2.4l2.08,0.87c0.44-0.87,1.27-1.15,2.14-1.15
				c1.21,0,2.44,0.73,2.46,2.02v0.16c-0.42-0.24-1.33-0.61-2.44-0.61c-2.24,0-4.52,1.23-4.52,3.53c0,2.1,1.84,3.45,3.9,3.45
				c1.58,0,2.44-0.71,2.99-1.53h0.08v1.21h2.26v-6.02C147.36,28.9,145.28,27.34,142.59,27.34z M142.31,35.94
				c-0.77,0-1.84-0.38-1.84-1.33c0-1.21,1.33-1.68,2.48-1.68c1.03,0,1.51,0.22,2.14,0.53C144.91,34.91,143.66,35.94,142.31,35.94z
				 M155.59,27.68l-2.69,6.8h-0.08l-2.79-6.8h-2.52l4.18,9.51l-2.38,5.29h2.44l6.44-14.8H155.59z M134.49,37.73h2.34v-15.7h-2.34
				V37.73z"/>
			<g>
				<path class="st2" d="M13.34,9.54c-0.37,0.39-0.58,0.99-0.58,1.76v27.74c0,0.78,0.22,1.38,0.58,1.76l0.09,0.09l15.54-15.54v-0.18
					v-0.18L13.43,9.45L13.34,9.54z"/>
				<linearGradient id="SVGID_1_" gradientUnits="userSpaceOnUse" x1="39.2662" y1="25.171" x2="8.9119" y2="25.171">
					<stop  offset="0" style="stop-color:#FEE000"/>
					<stop  offset="0.1941" style="stop-color:#FCCF0B"/>
					<stop  offset="0.5469" style="stop-color:#FAB318"/>
					<stop  offset="0.8279" style="stop-color:#F9A21B"/>
					<stop  offset="1" style="stop-color:#F99B1C"/>
				</linearGradient>
				<path class="st3" d="M34.15,30.54l-5.18-5.18v-0.18v-0.18l5.18-5.18l0.12,0.07l6.14,3.49c1.75,1,1.75,2.63,0,3.62l-6.14,3.49
					L34.15,30.54z"/>
				<linearGradient id="SVGID_2_" gradientUnits="userSpaceOnUse" x1="31.3888" y1="28.0497" x2="2.8392" y2="56.5993">
					<stop  offset="0" style="stop-color:#EF4547"/>
					<stop  offset="1" style="stop-color:#C6186D"/>
				</linearGradient>
				<path class="st4" d="M34.27,30.47l-5.3-5.3L13.34,40.81c0.58,0.61,1.53,0.69,2.61,0.08L34.27,30.47"/>
				<linearGradient id="SVGID_3_" gradientUnits="userSpaceOnUse" x1="2.712" y1="-6.3854" x2="26.0221" y2="16.9246">
					<stop  offset="0" style="stop-color:#279E6F"/>
					<stop  offset="0.3168" style="stop-color:#4DAB6D"/>
					<stop  offset="0.7398" style="stop-color:#6ABA6A"/>
					<stop  offset="1" style="stop-color:#74C169"/>
				</linearGradient>
				<path class="st5" d="M34.27,19.87L15.94,9.46c-1.07-0.61-2.03-0.53-2.61,0.08l15.63,15.63L34.27,19.87z"/>
			</g>
		</g>
		<g>
			<path class="st1" d="M57.79,10.42c-0.47-0.42-1.09-0.69-1.78-0.69c-1.54,0-2.73,1.28-2.73,2.84c0,1.57,1.19,2.83,2.73,2.83
				c1.33,0,2.29-0.77,2.36-1.99h-2.1v-0.87h3.24c0,2.59-1.38,3.82-3.49,3.82c-2.1,0-3.73-1.69-3.73-3.78c0-2.1,1.63-3.8,3.73-3.8
				c0.98,0,1.85,0.38,2.5,0.98L57.79,10.42z"/>
			<path class="st1" d="M65.25,8.87V9.8h-3.38v2.36h2.95v0.93h-2.95v2.23h3.48v0.93h-4.48V8.87H65.25z"/>
			<path class="st1" d="M71.71,8.87v0.94h-2.24v6.44h-1.01V9.81h-2.24V8.87H71.71z"/>
			<path class="st1" d="M76.49,8.87v7.39h-1V8.87H76.49z"/>
			<path class="st1" d="M83.29,8.87v0.94h-2.24v6.44h-1.01V9.81H77.8V8.87H83.29z"/>
			<path class="st1" d="M90.32,8.78c2.11,0,3.75,1.69,3.75,3.8c0,2.09-1.64,3.78-3.75,3.78c-2.1,0-3.73-1.69-3.73-3.78
				C86.59,10.48,88.22,8.78,90.32,8.78z M90.32,15.4c1.55,0,2.74-1.25,2.74-2.82c0-1.57-1.19-2.83-2.74-2.83
				c-1.54,0-2.73,1.26-2.73,2.83C87.59,14.14,88.78,15.4,90.32,15.4z"/>
			<path class="st1" d="M99.97,16.26l-3.37-5.56v5.56h-1V8.87h0.99l3.33,5.52V8.87h1v7.39H99.97z"/>
		</g>
	</g>
</g>
<g id="App_Store">
</g>
</svg>
